<svg width="24" height="24" viewBox="0 0 24 24" fill="none" xmlns="http://www.w3.org/2000/svg">
<path fill-rule="evenodd" clip-rule="evenodd" d="M2.5 8.7C2.5 7.5799 2.5 7.01984 2.71799 6.59202C2.90973 6.21569 3.21569 5.90973 3.59202 5.71799C4.01984 5.5 4.5799 5.5 5.7 5.5H18.3C19.4201 5.5 19.9802 5.5 20.408 5.71799C20.7843 5.90973 21.0903 6.21569 21.282 6.59202C21.5 7.01984 21.5 7.5799 21.5 8.7V15.3C21.5 16.4201 21.5 16.9802 21.282 17.408C21.0903 17.7843 20.7843 18.0903 20.408 18.282C19.9802 18.5 19.4201 18.5 18.3 18.5H5.7C4.57989 18.5 4.01984 18.5 3.59202 18.282C3.21569 18.0903 2.90973 17.7843 2.71799 17.408C2.5 16.9802 2.5 16.4201 2.5 15.3V8.7ZM15.5 16.5C17.7091 16.5 19.5 14.7091 19.5 12.5C19.5 10.2909 17.7091 8.5 15.5 8.5C13.2909 8.5 11.5 10.2909 11.5 12.5C11.5 14.7091 13.2909 16.5 15.5 16.5ZM7.5 9C7.5 9.82843 6.82843 10.5 6 10.5C5.17157 10.5 4.5 9.82843 4.5 9C4.5 8.17157 5.17157 7.5 6 7.5C6.82843 7.5 7.5 8.17157 7.5 9Z" fill="#010F07"/>
</svg>
