<svg width="24" height="24" viewBox="0 0 24 24" fill="none" xmlns="http://www.w3.org/2000/svg">
<path fill-rule="evenodd" clip-rule="evenodd" d="M3.66669 7.83334C3.66669 6.91287 4.41288 6.16667 5.33335 6.16667H18.6667C19.5872 6.16667 20.3334 6.91286 20.3334 7.83334V8.66667H3.66669V7.83334ZM3.66669 11.1667H20.3334V16.1667C20.3334 17.0871 19.5872 17.8333 18.6667 17.8333H5.33335C4.41288 17.8333 3.66669 17.0871 3.66669 16.1667V11.1667ZM16.1667 13.6667C15.7065 13.6667 15.3334 14.0398 15.3334 14.5C15.3334 14.9602 15.7064 15.3333 16.1667 15.3333H17.8334C18.2936 15.3333 18.6667 14.9602 18.6667 14.5C18.6667 14.0398 18.2936 13.6667 17.8334 13.6667H16.1667Z" fill="#010F07"/>
</svg>
