<svg width="24" height="24" viewBox="0 0 24 24" fill="none" xmlns="http://www.w3.org/2000/svg">
<path fill-rule="evenodd" clip-rule="evenodd" d="M8.9181 9.50001L12 5.80171L15.0819 9.50001H8.9181ZM6.99999 9.50001C6.99989 9.31177 7.06324 9.12243 7.19316 8.96652L11.3598 3.96652C11.693 3.56672 12.307 3.56672 12.6402 3.96652L16.8069 8.96652C16.9368 9.12243 17.0001 9.31177 17 9.50001H19.0833C19.5436 9.50001 19.9167 9.8731 19.9167 10.3333C19.9167 10.4434 19.8949 10.5523 19.8526 10.6539L16.8077 17.9615C16.4195 18.8932 15.5093 19.5 14.5 19.5H9.50001C8.49076 19.5 7.5805 18.8932 7.19232 17.9615L4.14745 10.6539C3.97044 10.229 4.17133 9.74112 4.59617 9.56411C4.69773 9.52179 4.80666 9.50001 4.91668 9.50001H6.99999ZM12 16.1667C12.9205 16.1667 13.6667 15.4205 13.6667 14.5C13.6667 13.5795 12.9205 12.8333 12 12.8333C11.0795 12.8333 10.3333 13.5795 10.3333 14.5C10.3333 15.4205 11.0795 16.1667 12 16.1667Z" fill="#010F07"/>
</svg>
