<svg width="24" height="24" viewBox="0 0 24 24" fill="none" xmlns="http://www.w3.org/2000/svg">
<path fill-rule="evenodd" clip-rule="evenodd" d="M4 12C4 16.4183 7.58172 20 12 20C16.4183 20 20 16.4183 20 12C20 7.58172 16.4183 4 12 4C7.58172 4 4 7.58172 4 12ZM12.0422 7.11111H11.9671C11.7349 7.11111 11.5418 7.28991 11.524 7.52147L11.1393 12.5227C11.1229 12.7352 11.2598 12.9294 11.4655 12.9855L15.5712 14.1053C15.6003 14.1132 15.6304 14.1172 15.6605 14.1172C15.848 14.1172 16 13.9653 16 13.7778V13.5913C16 13.4318 15.9145 13.2845 15.7761 13.2054L12.8889 11.5556L12.4845 7.51133C12.4617 7.28413 12.2706 7.11111 12.0422 7.11111Z" fill="#010F07"/>
</svg>
