<svg width="24" height="24" viewBox="0 0 24 24" fill="none" xmlns="http://www.w3.org/2000/svg">
<path fill-rule="evenodd" clip-rule="evenodd" d="M8.81801 7.75736C8.52512 7.46447 8.05024 7.46447 7.75735 7.75736C7.46446 8.05025 7.46446 8.52513 7.75735 8.81802L10.9393 12L7.75735 15.182C7.46446 15.4749 7.46446 15.9497 7.75735 16.2426C8.05024 16.5355 8.52512 16.5355 8.81801 16.2426L12 13.0607L15.182 16.2426C15.4749 16.5355 15.9497 16.5355 16.2426 16.2426C16.5355 15.9497 16.5355 15.4749 16.2426 15.182L13.0607 12L16.2426 8.81802C16.5355 8.52513 16.5355 8.05025 16.2426 7.75736C15.9497 7.46447 15.4749 7.46447 15.182 7.75736L12 10.9393L8.81801 7.75736Z" fill="#010F07"/>
</svg>
