<svg width="24" height="24" viewBox="0 0 24 24" fill="none" xmlns="http://www.w3.org/2000/svg">
<path fill-rule="evenodd" clip-rule="evenodd" d="M22 12C22 17.5228 17.5228 22 12 22C6.47715 22 2 17.5228 2 12C2 6.47715 6.47715 2 12 2C17.5228 2 22 6.47715 22 12ZM12.0422 4.5C11.6049 4.5 11.2505 4.85444 11.2505 5.29167V6.38655C11.1896 6.39982 11.1288 6.41399 11.0681 6.42908C10.5649 6.55408 10.1131 6.75158 9.71257 7.02158C9.31207 7.29158 8.9886 7.63658 8.74214 8.05658C8.49569 8.47658 8.37246 8.98158 8.37246 9.57158C8.37246 10.0516 8.45204 10.4591 8.61121 10.7941C8.77038 11.1291 8.9809 11.4141 9.24276 11.6491C9.50462 11.8841 9.80242 12.0766 10.1362 12.2266C10.4699 12.3766 10.8114 12.5066 11.1605 12.6166C11.5199 12.7266 11.8408 12.8291 12.1232 12.9241C12.4056 13.0191 12.6418 13.1241 12.8318 13.2391C13.0218 13.3541 13.1681 13.4816 13.2708 13.6216C13.3735 13.7616 13.4248 13.9316 13.4248 14.1316C13.4248 14.3416 13.3838 14.5216 13.3016 14.6716C13.2194 14.8216 13.1091 14.9416 12.9704 15.0316C12.8318 15.1216 12.6701 15.1866 12.4852 15.2266C12.3004 15.2666 12.1104 15.2866 11.9153 15.2866C11.484 15.2866 11.0501 15.1791 10.6137 14.9641C10.1772 14.7491 9.82553 14.4816 9.55853 14.1616L7.83333 15.8716C8.31598 16.3616 8.92185 16.7391 9.65096 17.0041C10.1711 17.1931 10.7043 17.3147 11.2505 17.3689V18.7083C11.2505 19.1456 11.6049 19.5 12.0422 19.5H12.0803C12.5175 19.5 12.8719 19.1456 12.8719 18.7083V17.324C13.074 17.2906 13.2737 17.2465 13.471 17.1916C13.9742 17.0516 14.4209 16.8366 14.8112 16.5466C15.2014 16.2566 15.512 15.8891 15.7431 15.4441C15.9741 14.9991 16.0896 14.4716 16.0896 13.8616C16.0896 13.3316 15.9818 12.8891 15.7662 12.5341C15.5505 12.1791 15.2784 11.8816 14.9498 11.6416C14.6212 11.4016 14.2566 11.2091 13.8561 11.0641C13.4556 10.9191 13.0706 10.7866 12.7009 10.6666C12.4441 10.5866 12.2131 10.5091 12.0077 10.4341C11.8023 10.3591 11.6252 10.2766 11.4763 10.1866C11.3274 10.0966 11.2144 9.99158 11.1374 9.87158C11.0604 9.75158 11.0219 9.60158 11.0219 9.42158C11.0219 9.21158 11.0707 9.03908 11.1682 8.90408C11.2658 8.76908 11.3864 8.65908 11.5302 8.57408C11.674 8.48908 11.8357 8.43158 12.0154 8.40158C12.1951 8.37158 12.3723 8.35658 12.5468 8.35658C12.8857 8.35658 13.2374 8.43908 13.602 8.60408C13.9665 8.76908 14.2618 8.99158 14.4877 9.27158L16.1667 7.54658C15.684 7.11658 15.1218 6.79158 14.48 6.57158C13.9347 6.38467 13.3987 6.27716 12.8719 6.24904V5.29167C12.8719 4.85444 12.5175 4.5 12.0803 4.5H12.0422Z" fill="#010F07"/>
</svg>
