<svg width="24" height="24" viewBox="0 0 24 24" fill="none" xmlns="http://www.w3.org/2000/svg">
<path fill-rule="evenodd" clip-rule="evenodd" d="M7.37521 8.25207L7.00001 4.5H6.16667V8.25C6.16667 9.86083 7.47251 11.1667 9.08334 11.1667C10.6942 11.1667 12 9.86083 12 8.25V4.5H11.1667L10.7915 8.25207C10.7679 8.48743 10.5699 8.66667 10.3333 8.66667C10.0968 8.66667 9.89875 8.48743 9.87521 8.25207L9.50001 4.5H8.66667L8.29147 8.25207C8.26793 8.48743 8.06988 8.66667 7.83334 8.66667C7.5968 8.66667 7.39875 8.48743 7.37521 8.25207ZM9.9629 13.6654C9.93696 13.1986 9.55087 12.8333 9.08334 12.8333C8.61581 12.8333 8.22971 13.1986 8.20378 13.6654L7.90268 19.0853C7.90146 19.1071 7.90086 19.129 7.90086 19.1509C7.90086 19.8039 8.43027 20.3333 9.08334 20.3333C9.10522 20.3333 9.12709 20.3327 9.14893 20.3315C9.80099 20.2953 10.3002 19.7373 10.264 19.0853L9.9629 13.6654ZM16.5833 14.5C17.0529 14.5 17.4426 14.8629 17.476 15.3312L17.7443 19.0865C17.7901 19.7277 17.3074 20.2846 16.6663 20.3304C16.6387 20.3323 16.611 20.3333 16.5833 20.3333C15.9405 20.3333 15.4194 19.8122 15.4194 19.1694C15.4194 19.1418 15.4204 19.1141 15.4224 19.0865L15.6906 15.3312C15.7241 14.8629 16.1138 14.5 16.5833 14.5ZM17.8333 12.8333V4.5C15.9924 4.5 14.5 5.99238 14.5 7.83333V12.8333H17.8333Z" fill="black"/>
</svg>
