<svg width="24" height="24" viewBox="0 0 24 24" fill="none" xmlns="http://www.w3.org/2000/svg">
<path fill-rule="evenodd" clip-rule="evenodd" d="M5.2976 9.01259L11.5655 5.18222C11.8322 5.0192 12.1678 5.0192 12.4346 5.18222L18.7024 9.01259C19.1979 9.31535 19.5 9.85411 19.5 10.4347V17.8334C19.5 18.7539 18.7538 19.5001 17.8333 19.5001L6.16667 19.5001C5.24619 19.5001 4.5 18.7539 4.5 17.8334L4.50001 10.4347C4.50001 9.85411 4.80217 9.31535 5.2976 9.01259ZM10.3333 12.8333C9.87311 12.8333 9.50002 13.2064 9.50002 13.6667V16.1667C9.50002 16.6269 9.87311 17 10.3333 17H13.6667C14.1269 17 14.5 16.6269 14.5 16.1667V13.6667C14.5 13.2064 14.1269 12.8333 13.6667 12.8333H10.3333Z" fill="#010F07"/>
</svg>
