<svg width="24" height="24" viewBox="0 0 24 24" fill="none" xmlns="http://www.w3.org/2000/svg">
<path fill-rule="evenodd" clip-rule="evenodd" d="M5.33333 5.83333C5.33333 5.36662 5.33333 5.13327 5.42416 4.95501C5.50405 4.79821 5.63153 4.67072 5.78834 4.59083C5.9666 4.5 6.19995 4.5 6.66666 4.5H17.3333C17.8 4.5 18.0334 4.5 18.2117 4.59083C18.3685 4.67072 18.4959 4.79821 18.5758 4.95501C18.6667 5.13327 18.6667 5.36662 18.6667 5.83333V18.1667C18.6667 18.6334 18.6667 18.8667 18.5758 19.045C18.5359 19.1234 18.484 19.1945 18.4226 19.2559L17 17.8333L15.75 19.0833L14.5 17.8333L13.25 19.0833L12 17.8333L10.75 19.0833L9.49999 17.8333L8.24999 19.0833L6.99999 17.8333L5.57741 19.2559C5.51595 19.1945 5.4641 19.1234 5.42416 19.045C5.33333 18.8667 5.33333 18.6334 5.33333 18.1667V5.83333ZM7.04541 6.39417C6.99999 6.4833 6.99999 6.59998 6.99999 6.83333V7.16667C6.99999 7.40002 6.99999 7.5167 7.04541 7.60583C7.08536 7.68423 7.1491 7.74797 7.2275 7.78792C7.31663 7.83333 7.43331 7.83333 7.66666 7.83333H16.3333C16.5667 7.83333 16.6834 7.83333 16.7725 7.78792C16.8509 7.74797 16.9146 7.68423 16.9546 7.60583C17 7.5167 17 7.40002 17 7.16667V6.83333C17 6.59998 17 6.4833 16.9546 6.39417C16.9146 6.31577 16.8509 6.25203 16.7725 6.21208C16.6834 6.16667 16.5667 6.16667 16.3333 6.16667H7.66666C7.43331 6.16667 7.31663 6.16667 7.2275 6.21208C7.1491 6.25203 7.08536 6.31577 7.04541 6.39417Z" fill="#010F07"/>
</svg>
