<svg width="24" height="24" viewBox="0 0 24 24" fill="none" xmlns="http://www.w3.org/2000/svg">
<rect opacity="0.3" x="7.71428" y="3.69231" width="8.57143" height="16.6154" rx="1.52308" fill="#22A45D"/>
<path fill-rule="evenodd" clip-rule="evenodd" d="M7 6.32308C7 5.15989 7 4.5783 7.22637 4.13402C7.42549 3.74322 7.74322 3.42549 8.13402 3.22637C8.5783 3 9.15989 3 10.3231 3H13.6769C14.8401 3 15.4217 3 15.866 3.22637C16.2568 3.42549 16.5745 3.74322 16.7736 4.13402C17 4.5783 17 5.15989 17 6.32308V17.6769C17 18.8401 17 19.4217 16.7736 19.866C16.5745 20.2568 16.2568 20.5745 15.866 20.7736C15.4217 21 14.8401 21 13.6769 21H10.3231C9.15989 21 8.5783 21 8.13402 20.7736C7.74322 20.5745 7.42549 20.2568 7.22637 19.866C7 19.4217 7 18.8401 7 17.6769V6.32308ZM7.71429 6.12923C7.71429 5.27623 7.71429 4.84973 7.88029 4.52392C8.02631 4.23734 8.25931 4.00434 8.5459 3.85831C8.8717 3.69231 9.29821 3.69231 10.1512 3.69231H10.5714V3.83077C10.5714 4.13665 10.8194 4.38462 11.1253 4.38462H12.8747C13.1806 4.38462 13.4286 4.13665 13.4286 3.83077V3.69231H13.8488C14.7018 3.69231 15.1283 3.69231 15.4541 3.85831C15.7407 4.00434 15.9737 4.23734 16.1197 4.52392C16.2857 4.84973 16.2857 5.27623 16.2857 6.12923V17.8708C16.2857 18.7238 16.2857 19.1503 16.1197 19.4761C15.9737 19.7627 15.7407 19.9957 15.4541 20.1417C15.1283 20.3077 14.7018 20.3077 13.8488 20.3077H10.1512C9.29821 20.3077 8.8717 20.3077 8.5459 20.1417C8.25931 19.9957 8.02631 19.7627 7.88029 19.4761C7.71429 19.1503 7.71429 18.7238 7.71429 17.8708V6.12923Z" fill="#22A45D"/>
</svg>
