<svg width="375" height="384" viewBox="0 0 375 384" fill="none" xmlns="http://www.w3.org/2000/svg">
<path fill-rule="evenodd" clip-rule="evenodd" d="M309.563 319.234C312.217 318.473 313.752 315.704 312.991 313.05C312.23 310.395 309.461 308.861 306.806 309.622C304.152 310.383 302.617 313.152 303.378 315.806C304.139 318.461 306.908 319.996 309.563 319.234Z" fill="#22A45D"/>
<path fill-rule="evenodd" clip-rule="evenodd" d="M115.529 271.217C118.184 270.455 119.718 267.687 118.957 265.032C118.196 262.378 115.427 260.843 112.773 261.604C110.118 262.365 108.584 265.134 109.345 267.788C110.106 270.443 112.875 271.978 115.529 271.217Z" fill="#22A45D"/>
<path fill-rule="evenodd" clip-rule="evenodd" d="M71.8927 173.457C74.5472 172.696 76.082 169.927 75.3208 167.273C74.5597 164.618 71.7908 163.084 69.1363 163.845C66.4819 164.606 64.9471 167.375 65.7082 170.029C66.4694 172.684 69.2383 174.218 71.8927 173.457Z" fill="#22A45D"/>
<path fill-rule="evenodd" clip-rule="evenodd" d="M262.577 58.4421C265.231 57.681 266.766 54.9121 266.005 52.2576C265.244 49.6032 262.475 48.0684 259.821 48.8295C257.166 49.5907 255.631 52.3596 256.393 55.014C257.154 57.6685 259.923 59.2033 262.577 58.4421Z" fill="#22A45D"/>
<path fill-rule="evenodd" clip-rule="evenodd" d="M68.7623 131.703L76.8022 136.159L72.3456 144.199L64.3058 139.743L68.7623 131.703Z" fill="#FFD841"/>
<path fill-rule="evenodd" clip-rule="evenodd" d="M299.734 59.2309L307.774 63.6874L303.317 71.7273L295.277 67.2707L299.734 59.2309Z" fill="#FFD841"/>
<path fill-rule="evenodd" clip-rule="evenodd" d="M305.272 249.058L313.312 253.515L308.855 261.554L300.815 257.098L305.272 249.058Z" fill="#FFD841"/>
<path fill-rule="evenodd" clip-rule="evenodd" d="M136.903 285.894L144.943 290.35L140.486 298.39L132.446 293.934L136.903 285.894Z" fill="#FFD841"/>
<path fill-rule="evenodd" clip-rule="evenodd" d="M169.146 203.19C168.453 203.59 168.16 204.683 168.56 205.375L173.26 213.516C173.86 214.555 173.394 215.748 172.528 216.248C171.662 216.748 170.296 216.382 169.796 215.516L165.096 207.375C164.423 206.609 163.604 206.39 162.738 206.89L162.564 206.99C161.872 207.39 161.579 208.483 161.979 209.175L166.679 217.316C167.279 218.355 166.813 219.548 165.947 220.048C165.081 220.548 163.715 220.182 163.215 219.316L158.515 211.175C158.115 210.483 157.022 210.19 156.329 210.59C155.636 210.99 155.343 212.083 155.743 212.775L160.543 221.089C162.443 224.38 166.322 226.298 169.966 225.81C172.027 231.78 179.509 251.939 186.513 253.67C187.879 254.036 190.996 252.236 191.362 250.87C193.366 243.939 179.648 227.38 175.509 222.61C177.853 219.871 178.232 215.727 176.332 212.436L171.332 203.775C170.832 202.909 169.839 202.79 169.146 203.19Z" fill="#DCDCDC"/>
<path fill-rule="evenodd" clip-rule="evenodd" d="M173.881 235.79C177.215 243.565 181.868 252.425 186.513 253.67C187.879 254.036 190.996 252.236 191.362 250.87C192.607 246.225 187.26 237.765 182.194 230.99L173.881 235.79V235.79Z" fill="#22A45D"/>
<path fill-rule="evenodd" clip-rule="evenodd" d="M228.688 165.119C224.357 167.619 224.493 175.854 226.893 180.011L227.793 181.57C229.693 184.861 233.472 186.605 237.189 185.844C238.923 190.848 246.686 212.693 254.063 214.67C255.429 215.036 258.546 213.236 258.912 211.87C260.889 204.493 245.852 186.848 242.386 182.844C244.73 180.105 245.282 175.861 243.382 172.57L242.482 171.011C240.082 166.854 233.018 162.619 228.688 165.119Z" fill="#DCDCDC"/>
<path fill-rule="evenodd" clip-rule="evenodd" d="M241.431 196.79C244.765 204.565 249.418 213.425 254.063 214.67C255.429 215.036 258.546 213.236 258.912 211.87C260.157 207.225 254.81 198.765 249.744 191.99L241.431 196.79V196.79Z" fill="#22A45D"/>
<path d="M223.013 233.289C236.405 225.557 240.993 208.433 233.261 195.04C225.529 181.648 208.405 177.06 195.013 184.792C181.62 192.524 177.032 209.648 184.764 223.04C192.496 236.433 209.62 241.021 223.013 233.289Z" fill="#FFD600"/>
<path d="M219.513 227.227C229.557 221.428 232.998 208.585 227.199 198.54C221.4 188.496 208.557 185.055 198.513 190.854C188.468 196.653 185.027 209.496 190.826 219.54C196.625 229.585 209.468 233.026 219.513 227.227Z" fill="white"/>
<path d="M255.688 211.884C256.548 211.387 256.53 209.743 255.646 208.213C254.763 206.682 253.348 205.844 252.488 206.341C251.627 206.838 251.645 208.482 252.529 210.013C253.412 211.543 254.827 212.381 255.688 211.884Z" fill="white"/>
<path d="M188.138 250.884C188.998 250.387 188.98 248.743 188.096 247.213C187.213 245.682 185.798 244.844 184.938 245.341C184.077 245.838 184.095 247.482 184.979 249.013C185.862 250.543 187.277 251.381 188.138 250.884Z" fill="white"/>
<path fill-rule="evenodd" clip-rule="evenodd" d="M187.5 376.321C270.067 376.321 337 309.387 337 226.821C337 144.254 270.067 77.3209 187.5 77.3209C104.933 77.3209 38 144.254 38 226.821C38 309.387 104.933 376.321 187.5 376.321Z" fill="#DDF1E6"/>
<mask id="mask0" mask-type="alpha" maskUnits="userSpaceOnUse" x="38" y="77" width="299" height="300">
<path fill-rule="evenodd" clip-rule="evenodd" d="M187.5 376.321C270.067 376.321 337 309.387 337 226.821C337 144.254 270.067 77.3209 187.5 77.3209C104.933 77.3209 38 144.254 38 226.821C38 309.387 104.933 376.321 187.5 376.321Z" fill="white"/>
</mask>
<g mask="url(#mask0)">
<path fill-rule="evenodd" clip-rule="evenodd" d="M235.866 43.4025C369.641 116.613 266.192 164.351 349.045 237.431C395.736 278.614 326.737 357.775 245.406 356.248C216.435 355.705 186.618 301.524 158.906 292.248C126.366 281.356 97.0145 309.8 80.2264 271.616C9.00542 109.626 151.647 164.732 158.953 92.8755C166.26 21.0191 217.094 33.8358 235.866 43.4025Z" fill="#FBFBFB"/>
<path fill-rule="evenodd" clip-rule="evenodd" d="M309.563 318.991C312.217 318.23 313.752 315.461 312.991 312.806C312.23 310.152 309.461 308.617 306.806 309.378C304.152 310.139 302.617 312.908 303.378 315.563C304.139 318.217 306.908 319.752 309.563 318.991Z" fill="#22A45D"/>
<path fill-rule="evenodd" clip-rule="evenodd" d="M113.542 271.217C116.197 270.455 117.731 267.687 116.97 265.032C116.209 262.378 113.44 260.843 110.786 261.604C108.131 262.365 106.596 265.134 107.358 267.788C108.119 270.443 110.888 271.978 113.542 271.217Z" fill="#22A45D"/>
<path fill-rule="evenodd" clip-rule="evenodd" d="M69.9056 173.457C72.56 172.696 74.0949 169.927 73.3337 167.273C72.5725 164.618 69.8037 163.084 67.1492 163.845C64.4948 164.606 62.9599 167.375 63.7211 170.029C64.4822 172.684 67.2511 174.218 69.9056 173.457Z" fill="#22A45D"/>
<path fill-rule="evenodd" clip-rule="evenodd" d="M303.285 249.058L311.324 253.515L306.868 261.554L298.828 257.098L303.285 249.058Z" fill="#FFD841"/>
<path fill-rule="evenodd" clip-rule="evenodd" d="M134.916 285.894L142.955 290.35L138.499 298.39L130.459 293.934L134.916 285.894Z" fill="#FFD841"/>
<path fill-rule="evenodd" clip-rule="evenodd" d="M66.7752 131.703L74.815 136.159L70.3584 144.199L62.3186 139.743L66.7752 131.703Z" fill="#FFD841"/>
<path fill-rule="evenodd" clip-rule="evenodd" d="M167.159 203.19C166.466 203.59 166.173 204.683 166.573 205.375L171.273 213.516C171.873 214.555 171.407 215.748 170.541 216.248C169.675 216.748 168.309 216.382 167.809 215.516L163.109 207.375C162.436 206.609 161.616 206.39 160.75 206.89L160.577 206.99C159.884 207.39 159.592 208.483 159.992 209.175L164.692 217.316C165.292 218.355 164.826 219.548 163.96 220.048C163.093 220.548 161.727 220.182 161.227 219.316L156.527 211.175C156.127 210.483 155.035 210.19 154.342 210.59C153.649 210.99 153.356 212.083 153.756 212.775L158.556 221.089C160.456 224.38 164.335 226.298 167.979 225.81C170.04 231.78 177.522 251.939 184.526 253.67C185.892 254.036 189.009 252.236 189.375 250.87C191.379 243.939 177.661 227.38 173.522 222.61C175.866 219.871 176.245 215.727 174.345 212.436L169.345 203.775C168.845 202.909 167.852 202.79 167.159 203.19Z" fill="#DCDCDC"/>
<path fill-rule="evenodd" clip-rule="evenodd" d="M171.893 235.79C175.227 243.565 179.881 252.425 184.526 253.67C185.892 254.036 189.009 252.236 189.375 250.87C190.62 246.225 185.273 237.765 180.207 230.99L171.893 235.79V235.79Z" fill="#22A45D"/>
<path fill-rule="evenodd" clip-rule="evenodd" d="M226.7 165.119C222.37 167.619 222.506 175.854 224.906 180.011L225.806 181.57C227.706 184.861 231.485 186.605 235.202 185.844C236.936 190.848 244.699 212.693 252.076 214.67C253.442 215.036 256.559 213.236 256.925 211.87C258.902 204.493 243.864 186.848 240.398 182.844C242.743 180.105 243.295 175.861 241.395 172.57L240.495 171.011C238.095 166.854 231.031 162.619 226.7 165.119Z" fill="#DCDCDC"/>
<path fill-rule="evenodd" clip-rule="evenodd" d="M239.443 196.79C242.777 204.565 247.431 213.425 252.076 214.67C253.442 215.036 256.559 213.236 256.925 211.87C258.17 207.225 252.823 198.765 247.757 191.99L239.443 196.79V196.79Z" fill="#22A45D"/>
<path d="M221.025 233.289C234.418 225.557 239.006 208.433 231.274 195.04C223.542 181.648 206.418 177.06 193.025 184.792C179.633 192.524 175.045 209.648 182.777 223.04C190.509 236.433 207.633 241.021 221.025 233.289Z" fill="#FFD600"/>
<path d="M217.525 227.227C227.57 221.428 231.011 208.585 225.212 198.54C219.413 188.496 206.57 185.055 196.525 190.854C186.481 196.653 183.04 209.496 188.839 219.54C194.638 229.585 207.481 233.026 217.525 227.227Z" fill="white"/>
<path d="M253.7 211.884C254.561 211.387 254.543 209.743 253.659 208.213C252.776 206.682 251.361 205.844 250.5 206.341C249.639 206.838 249.658 208.482 250.542 210.013C251.425 211.543 252.839 212.381 253.7 211.884Z" fill="white"/>
<path d="M186.15 250.884C187.011 250.387 186.993 248.743 186.109 247.213C185.226 245.682 183.811 244.844 182.95 245.341C182.089 245.838 182.108 247.482 182.992 249.013C183.875 250.543 185.289 251.381 186.15 250.884Z" fill="white"/>
</g>
</svg>
