<svg width="308" height="364" viewBox="0 0 308 364" fill="none" xmlns="http://www.w3.org/2000/svg">
<path fill-rule="evenodd" clip-rule="evenodd" d="M156.102 363.196C238.669 363.196 305.602 296.262 305.602 213.696C305.602 131.129 238.669 64.1958 156.102 64.1958C73.5354 64.1958 6.60199 131.129 6.60199 213.696C6.60199 296.262 73.5354 363.196 156.102 363.196Z" fill="#F1EFDD"/>
<mask id="mask0" mask-type="alpha" maskUnits="userSpaceOnUse" x="6" y="64" width="300" height="300">
<path fill-rule="evenodd" clip-rule="evenodd" d="M156.102 363.196C238.669 363.196 305.602 296.262 305.602 213.696C305.602 131.129 238.669 64.1958 156.102 64.1958C73.5354 64.1958 6.60199 131.129 6.60199 213.696C6.60199 296.262 73.5354 363.196 156.102 363.196Z" fill="white"/>
</mask>
<g mask="url(#mask0)">
<path d="M264.502 324.396C259.702 329.196 252.702 334.696 246.402 338.396C245.902 338.696 245.402 338.996 244.902 339.296C239.202 342.496 232.602 345.896 230.802 344.096C227.602 340.896 237.102 325.996 245.302 316.096C245.702 315.596 246.002 315.196 246.402 314.796C247.802 313.196 249.102 311.696 250.402 310.396C260.102 300.696 263.602 303.396 267.502 307.296C271.002 310.796 273.602 314.196 266.602 322.096C266.202 322.496 265.802 322.896 265.402 323.396C265.202 323.796 264.802 324.096 264.502 324.396Z" fill="#FF7B65"/>
<path d="M278.102 306.296C276.602 305.396 274.902 304.996 273.302 304.996C274.102 303.596 274.602 301.896 274.602 300.196C272.902 300.196 271.302 300.596 269.902 301.396C269.902 299.796 269.502 298.196 268.602 296.696C265.202 298.596 263.302 302.296 263.602 305.996C263.702 307.196 264.802 309.896 264.902 310.096C265.002 310.196 267.702 311.296 269.002 311.396C272.502 311.596 276.202 309.796 278.102 306.296Z" fill="#22A45D"/>
<path d="M265.502 323.396L259.102 316.996C258.802 316.696 258.802 316.096 259.102 315.796C259.402 315.496 260.002 315.496 260.302 315.796L266.602 322.096C266.302 322.596 265.902 322.996 265.502 323.396Z" fill="#F2F2F2"/>
<path d="M246.402 338.396C245.902 338.696 245.402 338.996 244.902 339.296L240.902 335.296C240.602 334.996 240.602 334.396 240.902 334.096C241.202 333.796 241.802 333.796 242.102 334.096L246.402 338.396Z" fill="#F2F2F2"/>
<path d="M254.702 324.396C254.402 324.696 253.802 324.696 253.502 324.396L245.302 316.196C245.702 315.696 246.002 315.296 246.402 314.896L254.802 323.296C255.102 323.496 255.102 323.996 254.702 324.396Z" fill="#F2F2F2"/>
<path d="M159.402 141.696V155.796C189.702 155.796 214.302 180.396 214.302 210.396H228.402C228.102 172.596 197.202 141.696 159.402 141.696Z" fill="#F8B64C"/>
<path d="M221.802 216.996C221.802 255.096 190.902 285.696 153.102 285.696C115.002 285.696 84.402 254.796 84.402 216.996C84.402 178.896 115.302 148.296 153.102 148.296V162.396C122.802 162.396 98.502 186.996 98.502 216.996C98.502 247.296 123.102 271.896 153.102 271.896C183.402 271.896 208.002 247.296 208.002 216.996H221.802Z" fill="#F8B64C"/>
<path d="M214.002 210.396C214.002 180.096 189.402 155.796 159.102 155.796V210.396H214.002Z" fill="#FFD15C"/>
<path d="M207.702 216.996C207.702 247.296 183.102 271.896 152.802 271.896C122.502 271.896 98.202 247.296 98.202 216.996C98.202 186.696 122.802 162.396 152.802 162.396V216.996H207.702Z" fill="#FFD15C"/>
<path d="M182.502 252.096C187.97 252.096 192.402 247.663 192.402 242.196C192.402 236.728 187.97 232.296 182.502 232.296C177.034 232.296 172.602 236.728 172.602 242.196C172.602 247.663 177.034 252.096 182.502 252.096Z" fill="#FF7B65"/>
<path d="M182.502 237.396C183.496 237.396 184.302 236.59 184.302 235.596C184.302 234.602 183.496 233.796 182.502 233.796C181.508 233.796 180.702 234.602 180.702 235.596C180.702 236.59 181.508 237.396 182.502 237.396Z" fill="#E76A56"/>
<path d="M182.502 250.896C183.496 250.896 184.302 250.09 184.302 249.096C184.302 248.102 183.496 247.296 182.502 247.296C181.508 247.296 180.702 248.102 180.702 249.096C180.702 250.09 181.508 250.896 182.502 250.896Z" fill="#E76A56"/>
<path d="M188.535 238.686C189.238 237.983 189.238 236.843 188.535 236.14C187.832 235.437 186.692 235.438 185.989 236.141C185.286 236.844 185.287 237.983 185.99 238.686C186.693 239.389 187.832 239.389 188.535 238.686Z" fill="#E76A56"/>
<path d="M178.883 248.276C179.586 247.573 179.586 246.433 178.883 245.73C178.18 245.028 177.041 245.028 176.338 245.73C175.635 246.433 175.635 247.573 176.338 248.276C177.041 248.979 178.18 248.979 178.883 248.276Z" fill="#E76A56"/>
<path d="M189.402 243.996C190.396 243.996 191.202 243.19 191.202 242.196C191.202 241.202 190.396 240.396 189.402 240.396C188.408 240.396 187.602 241.202 187.602 242.196C187.602 243.19 188.408 243.996 189.402 243.996Z" fill="#E76A56"/>
<path d="M175.602 243.996C176.596 243.996 177.402 243.19 177.402 242.196C177.402 241.202 176.596 240.396 175.602 240.396C174.608 240.396 173.802 241.202 173.802 242.196C173.802 243.19 174.608 243.996 175.602 243.996Z" fill="#E76A56"/>
<path d="M188.499 248.296C189.202 247.593 189.202 246.454 188.499 245.751C187.796 245.048 186.656 245.048 185.953 245.751C185.251 246.454 185.251 247.593 185.953 248.296C186.656 248.999 187.796 248.999 188.499 248.296Z" fill="#E76A56"/>
<path d="M178.92 238.657C179.623 237.954 179.623 236.814 178.92 236.111C178.217 235.408 177.078 235.408 176.375 236.111C175.672 236.814 175.671 237.954 176.374 238.657C177.077 239.36 178.217 239.36 178.92 238.657Z" fill="#E76A56"/>
<path d="M119.502 222.096C124.97 222.096 129.402 217.663 129.402 212.196C129.402 206.728 124.97 202.296 119.502 202.296C114.034 202.296 109.602 206.728 109.602 212.196C109.602 217.663 114.034 222.096 119.502 222.096Z" fill="#FF7B65"/>
<path d="M119.502 207.396C120.496 207.396 121.302 206.59 121.302 205.596C121.302 204.602 120.496 203.796 119.502 203.796C118.508 203.796 117.702 204.602 117.702 205.596C117.702 206.59 118.508 207.396 119.502 207.396Z" fill="#E76A56"/>
<path d="M119.502 220.896C120.496 220.896 121.302 220.09 121.302 219.096C121.302 218.102 120.496 217.296 119.502 217.296C118.508 217.296 117.702 218.102 117.702 219.096C117.702 220.09 118.508 220.896 119.502 220.896Z" fill="#E76A56"/>
<path d="M125.535 208.686C126.238 207.983 126.238 206.843 125.535 206.14C124.832 205.437 123.692 205.438 122.989 206.141C122.286 206.844 122.287 207.983 122.99 208.686C123.693 209.389 124.832 209.389 125.535 208.686Z" fill="#E76A56"/>
<path d="M115.883 218.276C116.586 217.573 116.586 216.433 115.883 215.73C115.18 215.028 114.041 215.028 113.338 215.73C112.635 216.433 112.635 217.573 113.338 218.276C114.041 218.979 115.18 218.979 115.883 218.276Z" fill="#E76A56"/>
<path d="M126.402 213.996C127.396 213.996 128.202 213.19 128.202 212.196C128.202 211.202 127.396 210.396 126.402 210.396C125.408 210.396 124.602 211.202 124.602 212.196C124.602 213.19 125.408 213.996 126.402 213.996Z" fill="#E76A56"/>
<path d="M112.602 213.996C113.596 213.996 114.402 213.19 114.402 212.196C114.402 211.202 113.596 210.396 112.602 210.396C111.608 210.396 110.802 211.202 110.802 212.196C110.802 213.19 111.608 213.996 112.602 213.996Z" fill="#E76A56"/>
<path d="M125.499 218.296C126.202 217.593 126.202 216.454 125.499 215.751C124.796 215.048 123.656 215.048 122.953 215.751C122.251 216.454 122.251 217.593 122.953 218.296C123.656 218.999 124.796 218.999 125.499 218.296Z" fill="#E76A56"/>
<path d="M115.92 208.657C116.623 207.954 116.623 206.814 115.92 206.111C115.217 205.408 114.078 205.408 113.375 206.111C112.672 206.814 112.671 207.954 113.374 208.657C114.077 209.36 115.217 209.36 115.92 208.657Z" fill="#E76A56"/>
<path fill-rule="evenodd" clip-rule="evenodd" d="M139.002 178.596C139.302 178.896 139.902 179.196 140.502 179.196C141.102 179.196 142.002 178.896 143.202 177.996C145.002 179.496 146.502 179.496 147.402 178.596C148.302 177.696 148.302 176.196 146.802 174.396C148.302 172.596 148.302 171.096 147.402 170.196C146.502 169.296 145.002 169.296 143.202 170.796C141.402 169.296 139.902 169.296 139.002 170.196C138.102 171.096 138.102 172.596 139.602 174.396C138.102 176.196 138.102 177.696 139.002 178.596ZM139.602 171.096C139.902 170.796 140.202 170.796 140.502 170.796C141.102 170.796 141.702 171.096 142.602 171.696L142.902 172.296L143.202 171.996C144.402 170.796 145.602 170.496 146.202 171.096C146.802 171.396 146.502 172.596 145.302 174.096L145.002 174.396L145.302 174.696C146.502 175.896 146.802 177.096 146.202 177.696C145.902 178.296 144.702 177.996 143.202 176.796L142.902 176.496L142.602 176.796C141.402 177.996 140.202 178.296 139.602 177.696C139.002 177.396 139.302 176.196 140.502 174.696L140.802 174.396L140.502 174.096C139.302 172.896 139.002 171.696 139.602 171.096Z" fill="#FF7B65"/>
<path d="M122.802 188.196C124.293 188.196 125.502 186.987 125.502 185.496C125.502 184.005 124.293 182.796 122.802 182.796C121.311 182.796 120.102 184.005 120.102 185.496C120.102 186.987 121.311 188.196 122.802 188.196Z" fill="#40596B"/>
<path d="M123.702 185.496C124.199 185.496 124.602 185.093 124.602 184.596C124.602 184.099 124.199 183.696 123.702 183.696C123.205 183.696 122.802 184.099 122.802 184.596C122.802 185.093 123.205 185.496 123.702 185.496Z" fill="white"/>
<path d="M140.202 240.096C141.693 240.096 142.902 238.887 142.902 237.396C142.902 235.905 141.693 234.696 140.202 234.696C138.711 234.696 137.502 235.905 137.502 237.396C137.502 238.887 138.711 240.096 140.202 240.096Z" fill="#40596B"/>
<path d="M140.802 237.396C141.299 237.396 141.702 236.993 141.702 236.496C141.702 235.999 141.299 235.596 140.802 235.596C140.305 235.596 139.902 235.999 139.902 236.496C139.902 236.993 140.305 237.396 140.802 237.396Z" fill="white"/>
<path d="M197.802 225.996C199.293 225.996 200.502 224.787 200.502 223.296C200.502 221.805 199.293 220.596 197.802 220.596C196.311 220.596 195.102 221.805 195.102 223.296C195.102 224.787 196.311 225.996 197.802 225.996Z" fill="#40596B"/>
<path d="M198.702 222.996C199.199 222.996 199.602 222.593 199.602 222.096C199.602 221.599 199.199 221.196 198.702 221.196C198.205 221.196 197.802 221.599 197.802 222.096C197.802 222.593 198.205 222.996 198.702 222.996Z" fill="white"/>
<path d="M198.102 183.696C199.593 183.696 200.802 182.487 200.802 180.996C200.802 179.505 199.593 178.296 198.102 178.296C196.611 178.296 195.402 179.505 195.402 180.996C195.402 182.487 196.611 183.696 198.102 183.696Z" fill="#40596B"/>
<path d="M199.002 180.996C199.499 180.996 199.902 180.593 199.902 180.096C199.902 179.599 199.499 179.196 199.002 179.196C198.505 179.196 198.102 179.599 198.102 180.096C198.102 180.593 198.505 180.996 199.002 180.996Z" fill="white"/>
<path d="M167.202 255.096C168.693 255.096 169.902 253.887 169.902 252.396C169.902 250.905 168.693 249.696 167.202 249.696C165.711 249.696 164.502 250.905 164.502 252.396C164.502 253.887 165.711 255.096 167.202 255.096Z" fill="#40596B"/>
<path d="M167.802 252.096C168.299 252.096 168.702 251.693 168.702 251.196C168.702 250.699 168.299 250.296 167.802 250.296C167.305 250.296 166.902 250.699 166.902 251.196C166.902 251.693 167.305 252.096 167.802 252.096Z" fill="white"/>
<path d="M140.202 200.496C142.687 200.496 144.702 198.481 144.702 195.996C144.702 193.511 142.687 191.496 140.202 191.496C137.717 191.496 135.702 193.511 135.702 195.996C135.702 198.481 137.717 200.496 140.202 200.496Z" fill="white"/>
<path d="M156.402 235.296C158.202 233.796 158.502 231.096 157.002 228.996C155.502 227.196 152.802 226.896 150.702 228.396C150.102 228.996 150.402 230.196 151.002 231.396L147.702 234.096L150.102 237.096L153.402 234.396C154.602 235.296 155.802 235.896 156.402 235.296Z" fill="#22A45D"/>
<path fill-rule="evenodd" clip-rule="evenodd" d="M113.802 242.196C113.802 238.896 116.502 236.196 119.802 236.196C123.102 236.196 125.802 238.896 125.802 242.196C125.802 245.496 123.102 248.196 119.802 248.196C116.502 248.196 113.802 245.496 113.802 242.196ZM116.202 242.496C116.202 244.296 117.702 246.096 119.802 246.096C121.902 246.096 123.402 244.296 123.402 242.496C123.402 240.696 121.902 238.896 119.802 238.896C118.002 238.896 116.202 240.396 116.202 242.496Z" fill="#FF7B65"/>
<path d="M180.702 190.596C178.002 188.196 177.402 184.296 179.802 181.596C182.202 178.896 186.102 178.296 188.802 180.696C189.702 181.596 189.402 183.396 188.502 185.196L193.302 189.096L189.702 193.296L184.902 189.396C183.402 190.596 181.602 191.496 180.702 190.596Z" fill="#22A45D"/>
<path fill-rule="evenodd" clip-rule="evenodd" d="M210.102 196.596C210.102 199.896 207.402 202.596 204.102 202.596C200.802 202.596 198.102 199.896 198.102 196.596C198.102 193.296 200.802 190.596 204.102 190.596C207.402 190.596 210.102 193.296 210.102 196.596ZM207.702 196.296C207.702 194.496 206.202 192.696 204.102 192.696C202.002 192.696 200.502 194.196 200.502 196.296C200.502 198.096 202.002 199.896 204.102 199.896C205.902 199.896 207.702 198.396 207.702 196.296Z" fill="#E76A56"/>
<path d="M166.602 206.496C166.602 205.296 167.802 204.396 168.702 204.696C172.602 204.996 175.902 201.996 176.202 198.096C176.202 196.896 177.402 195.996 178.302 196.296C179.502 196.296 180.402 197.496 180.102 198.396C179.802 204.696 174.402 209.196 168.102 208.896C167.202 208.596 166.302 207.696 166.602 206.496Z" fill="#5DBB88"/>
<path d="M141.702 253.596C142.902 253.596 143.802 254.496 143.802 255.396C144.102 259.296 147.402 262.296 151.302 261.996C152.502 261.996 153.402 262.896 153.402 263.796C153.402 264.996 152.502 265.896 151.602 265.896C145.302 266.496 139.902 261.696 139.602 255.696C139.602 254.796 140.502 253.596 141.702 253.596Z" fill="#5DBB88"/>
<path d="M169.902 179.796C173.878 179.796 177.102 176.572 177.102 172.596C177.102 168.619 173.878 165.396 169.902 165.396C165.926 165.396 162.702 168.619 162.702 172.596C162.702 176.572 165.926 179.796 169.902 179.796Z" fill="#F8B64C"/>
</g>
<path d="M264.502 324.396C259.702 329.196 252.702 334.696 246.402 338.396C245.902 338.696 245.402 338.996 244.902 339.296C239.202 342.496 232.602 345.896 230.802 344.096C227.602 340.896 237.102 325.996 245.302 316.096C245.702 315.596 246.002 315.196 246.402 314.796C247.802 313.196 249.102 311.696 250.402 310.396C260.102 300.696 263.602 303.396 267.502 307.296C271.002 310.796 273.602 314.196 266.602 322.096C266.202 322.496 265.802 322.896 265.402 323.396C265.202 323.796 264.802 324.096 264.502 324.396Z" fill="#FF7B65"/>
<path d="M278.102 306.296C276.602 305.396 274.902 304.996 273.302 304.996C274.102 303.596 274.602 301.896 274.602 300.196C272.902 300.196 271.302 300.596 269.902 301.396C269.902 299.796 269.502 298.196 268.602 296.696C265.202 298.596 263.302 302.296 263.602 305.996C263.702 307.196 264.802 309.896 264.902 310.096C265.002 310.196 267.702 311.296 269.002 311.396C272.502 311.596 276.202 309.796 278.102 306.296Z" fill="#22A45D"/>
<path d="M265.502 323.396L259.102 316.996C258.802 316.696 258.802 316.096 259.102 315.796C259.402 315.496 260.002 315.496 260.302 315.796L266.602 322.096C266.302 322.596 265.902 322.996 265.502 323.396Z" fill="#F2F2F2"/>
<path d="M246.402 338.396C245.902 338.696 245.402 338.996 244.902 339.296L240.902 335.296C240.602 334.996 240.602 334.396 240.902 334.096C241.202 333.796 241.802 333.796 242.102 334.096L246.402 338.396Z" fill="#F2F2F2"/>
<path d="M254.702 324.396C254.402 324.696 253.802 324.696 253.502 324.396L245.302 316.196C245.702 315.696 246.002 315.296 246.402 314.896L254.802 323.296C255.102 323.496 255.102 323.996 254.702 324.396Z" fill="#F2F2F2"/>
<path d="M53.0067 80.5002C61.4067 72.1002 61.4067 58.6002 53.0067 50.2002L22.7067 80.5002C31.1067 88.9002 44.7067 88.9002 53.0067 80.5002Z" fill="#FF7058"/>
<path d="M56.3067 47.0002C66.5067 57.1002 66.5067 73.6002 56.3067 83.8002C46.1067 94.0002 29.6067 94.0002 19.5067 83.8002L18.0067 85.3002C29.0067 96.3002 46.8067 96.3002 57.8067 85.3002C68.8067 74.3002 68.8067 56.5002 57.8067 45.5002L56.3067 47.0002Z" fill="#22A45D"/>
<rect x="19.4753" y="83.8328" width="4.59996" height="0.1" transform="rotate(-45 19.4753 83.8328)" fill="#F2F2F2"/>
<rect x="53.0286" y="50.2139" width="4.59996" height="0.1" transform="rotate(-45 53.0286 50.2139)" fill="#F2F2F2"/>
<path d="M56.3067 83.8002C66.5067 73.6002 66.5067 57.1002 56.3067 47.0002L53.0067 50.3002C61.4067 58.7002 61.4067 72.2002 53.0067 80.6002C44.6067 89.0002 31.1067 89.0002 22.7067 80.6002L19.5067 83.8002C29.6067 94.0002 46.1067 94.0002 56.3067 83.8002Z" fill="#F2F2F2"/>
<path d="M50.1704 60.6211C50.7562 60.0354 50.7562 59.0856 50.1704 58.4998C49.5846 57.9141 48.6349 57.9141 48.0491 58.4998C47.4633 59.0856 47.4633 60.0354 48.0491 60.6211C48.6349 61.2069 49.5846 61.2069 50.1704 60.6211Z" fill="white"/>
<path d="M41.6815 69.1257C42.2673 68.5399 42.2673 67.5901 41.6815 67.0044C41.0957 66.4186 40.146 66.4186 39.5602 67.0044C38.9744 67.5901 38.9744 68.5399 39.5602 69.1257C40.146 69.7114 41.0957 69.7114 41.6815 69.1257Z" fill="white"/>
<path d="M33.1926 77.6302C33.7784 77.0444 33.7784 76.0947 33.1926 75.5089C32.6069 74.9231 31.6571 74.9231 31.0713 75.5089C30.4856 76.0946 30.4856 77.0444 31.0713 77.6302C31.6571 78.2159 32.6069 78.2159 33.1926 77.6302Z" fill="white"/>
<path d="M49.767 68.745C50.3528 68.1592 50.3528 67.2095 49.767 66.6237C49.1812 66.0379 48.2315 66.0379 47.6457 66.6237C47.0599 67.2095 47.0599 68.1592 47.6457 68.745C48.2315 69.3308 49.1812 69.3308 49.767 68.745Z" fill="white"/>
<path d="M41.2781 77.2495C41.8639 76.6637 41.8639 75.714 41.2781 75.1282C40.6923 74.5424 39.7426 74.5424 39.1568 75.1282C38.571 75.714 38.571 76.6637 39.1568 77.2495C39.7426 77.8353 40.6923 77.8353 41.2781 77.2495Z" fill="white"/>
<path d="M49.3635 76.8691C49.9492 76.2833 49.9492 75.3335 49.3635 74.7478C48.7777 74.162 47.8279 74.162 47.2422 74.7478C46.6564 75.3335 46.6564 76.2833 47.2422 76.8691C47.8279 77.4548 48.7777 77.4548 49.3635 76.8691Z" fill="white"/>
<path d="M206.207 79.6002C206.507 78.8002 207.807 77.1002 208.607 77.2002C212.907 77.4002 226.707 77.6002 232.707 71.0002C232.707 71.0002 236.507 67.9002 237.707 60.3002C237.707 60.3002 237.107 54.0002 236.607 51.7002C236.507 51.2002 236.607 50.7002 236.907 50.3002C237.307 49.7002 238.107 49.5002 238.807 49.7002L240.207 50.0002C241.207 50.3002 241.807 51.1002 241.907 52.1002L242.107 57.8002C242.107 57.8002 250.407 61.4002 247.207 73.4002C247.207 73.4002 242.507 86.9002 223.607 89.0002C223.607 89.0002 214.507 90.7002 206.307 82.6002C205.907 82.1002 206.007 80.3002 206.207 79.6002Z" fill="#22A45D"/>
<path d="M237.607 91.5002C237.607 91.5002 229.707 96.5002 219.107 91.7002C217.907 91.2002 217.907 88.7002 217.907 88.7002C221.207 89.3002 223.507 88.9002 223.507 88.9002C242.507 86.9002 247.207 73.4002 247.207 73.4002C250.407 61.4002 242.107 57.8002 242.107 57.8002C242.107 57.8002 241.007 56.6002 238.407 55.7002C237.907 54.7002 237.307 53.7002 236.907 52.9002C236.807 52.4002 236.807 52.0002 236.707 51.7002C236.607 51.2002 236.707 50.7002 237.007 50.3002C237.407 49.7002 238.207 49.5002 238.907 49.7002L240.207 50.0002C240.907 50.2002 241.407 50.7002 241.707 51.3002C241.707 51.3002 241.707 51.4002 241.807 51.4002L243.707 55.8002C243.707 55.8002 252.707 56.2002 254.007 68.5002C254.007 68.5002 254.507 82.7002 237.607 91.5002Z" fill="#30AC68"/>
<path d="M241.707 51.3002C241.507 50.7002 240.907 50.2002 240.207 50.0002L238.907 49.6002C238.207 49.4002 237.507 49.7002 237.007 50.2002C236.707 50.6002 236.607 51.1002 236.707 51.6002C236.807 51.9002 236.807 52.4002 236.907 52.8002C236.707 52.6002 236.507 52.3002 236.407 52.0002C236.107 51.6002 236.107 51.1002 236.207 50.6002C236.407 49.9002 237.007 49.4002 237.707 49.3002L239.107 49.2002C240.107 49.1002 241.007 49.7002 241.407 50.6002L241.707 51.3002Z" fill="#136D3C"/>
<path d="M242.107 57.8002C242.107 57.8002 241.007 56.6002 238.407 55.7002C239.507 57.7002 240.407 59.7002 240.407 59.7002C242.007 67.2002 239.607 71.5002 239.607 71.5002C236.307 79.8002 223.407 84.6002 219.307 85.9002C218.607 86.1002 218.107 86.8002 218.007 87.6002V88.8002C221.307 89.4002 223.607 89.0002 223.607 89.0002C242.507 86.9002 247.207 73.4002 247.207 73.4002C250.407 61.4002 242.107 57.8002 242.107 57.8002Z" fill="#5DBB88"/>
<rect x="32.0822" y="293.026" width="4.79995" height="12.2999" transform="rotate(-45 32.0822 293.026)" fill="#EEF8F2"/>
<path d="M37.7067 291.8L35.5067 289.6L32.1067 293L34.3067 295.2C35.1067 294.9 35.8067 294.4 36.4067 293.9C37.0067 293.3 37.4067 292.6 37.7067 291.8Z" fill="#DBEDE2"/>
<path d="M35.2067 292.7C31.1067 296.8 14.1067 291.9 5.70666 283.5C-2.69334 275.1 -0.793341 268 4.80666 262.3C8.60666 258.6 13.0067 256.5 17.9067 258C18.9067 258.3 20.0067 258.7 21.0067 259.3C22.6067 260.2 24.3067 261.5 26.0067 263.2C26.8067 264 27.7067 264.9 28.4067 266C28.9067 266.7 29.5067 267.4 29.9067 268.2C31.3067 270.3 32.5067 272.6 33.4067 274.9C33.7067 275.6 34.0067 276.2 34.2067 276.9C35.2067 279.5 35.9067 282 36.2067 284.3C36.3067 285 36.4067 285.7 36.4067 286.4C36.8067 289.1 36.3067 291.5 35.2067 292.7Z" fill="#FF7B65"/>
<path d="M43.6067 301.1C44.8067 301.5 46.1067 301.2 47.0067 300.3C48.3067 299 48.3067 296.8 47.0067 295.5C45.7067 294.2 43.5067 294.2 42.2067 295.5C41.3067 296.4 41.0067 297.8 41.4067 298.9C40.2067 298.5 38.9067 298.8 38.0067 299.7C36.7067 301 36.7067 303.2 38.0067 304.5C39.3067 305.8 41.5067 305.8 42.8067 304.5C43.7067 303.6 44.0067 302.2 43.6067 301.1Z" fill="#EEF8F2"/>
<path d="M36.6067 286.3C35.2067 286.8 33.9067 287.6 32.7067 288.8C32.3067 289.2 31.6067 289.2 31.2067 288.8C30.8067 288.4 30.8067 287.7 31.2067 287.3C32.7067 285.8 34.4067 284.8 36.3067 284.2C36.4067 284.9 36.5067 285.6 36.6067 286.3Z" fill="#E76A56"/>
<path d="M34.3067 276.8C31.6067 276.8 28.8067 277.8 26.8067 279.9C26.4067 280.3 25.7067 280.3 25.3067 279.9C24.9067 279.5 24.9067 278.9 25.3067 278.5C27.6067 276.2 30.5067 275 33.5067 274.8C33.8067 275.5 34.1067 276.1 34.3067 276.8Z" fill="#E76A56"/>
<path d="M30.0067 268.1C26.8067 267.6 23.4067 268.6 20.9067 271.1C20.5067 271.5 19.8067 271.5 19.4067 271.1C19.0067 270.7 19.0067 270 19.4067 269.6C21.9067 267.1 25.2067 265.9 28.4067 265.9C29.0067 266.6 29.5067 267.4 30.0067 268.1Z" fill="#E76A56"/>
<path d="M21.0067 259.3C18.8067 259.6 16.6067 260.6 14.9067 262.3C14.5067 262.7 13.9067 262.7 13.5067 262.3C13.1067 261.9 13.1067 261.3 13.5067 260.9C14.8067 259.6 16.3067 258.6 18.0067 258C18.9067 258.2 20.0067 258.7 21.0067 259.3Z" fill="#E76A56"/>
<path d="M289.29 115.437L293.821 110.906C299.711 116.947 303.335 125.102 303.486 134.163H270.564L289.29 115.437Z" fill="#FF7B65"/>
<path d="M270.564 134.163L289.29 115.437C293.972 120.27 296.841 126.915 296.992 134.163H270.564Z" fill="#FFD15C"/>
<path d="M294.727 131.898C295.784 130.992 295.935 129.331 295.029 128.274C294.123 127.217 292.462 127.066 291.405 127.972C290.952 128.274 291.103 129.029 291.556 129.784L289.592 131.445L290.952 133.106L292.915 131.445C293.67 131.898 294.425 132.2 294.727 131.898Z" fill="#22A45D"/>
<path fill-rule="evenodd" clip-rule="evenodd" d="M278.115 130.539C278.115 129.18 279.172 128.123 280.531 128.123C281.89 128.123 282.947 129.18 282.947 130.539C282.947 131.898 281.89 132.955 280.531 132.955C279.172 132.955 278.115 131.898 278.115 130.539ZM279.021 130.69C279.021 131.596 279.625 132.2 280.531 132.2C281.286 132.2 282.041 131.445 282.041 130.69C282.041 129.935 281.437 129.18 280.531 129.18C279.776 129.18 279.021 129.784 279.021 130.69Z" fill="#FF7B65"/>
<path fill-rule="evenodd" clip-rule="evenodd" d="M285.666 123.894C285.666 122.535 286.723 121.478 288.082 121.478C289.441 121.478 290.498 122.535 290.498 123.894C290.498 125.253 289.441 126.31 288.082 126.31C286.723 126.31 285.666 125.253 285.666 123.894ZM286.572 124.045C286.572 124.8 287.176 125.555 288.082 125.555C288.988 125.555 289.592 124.8 289.592 124.045C289.592 123.139 288.988 122.535 288.082 122.535C287.176 122.535 286.572 123.139 286.572 124.045Z" fill="#E76A56"/>
<path d="M151.233 14.9512L132.507 33.6778V0.75531C141.568 0.90633 149.723 4.53082 155.764 10.4206L151.233 14.9512Z" fill="#FF7B65"/>
<path d="M151.233 14.9512L132.507 33.6778V7.24921C139.756 7.40023 146.25 10.2696 151.233 14.9512Z" fill="#FFD15C"/>
<path fill-rule="evenodd" clip-rule="evenodd" d="M142.474 15.1022C142.474 13.7431 143.531 12.6859 144.89 12.6859C146.25 12.6859 147.307 13.7431 147.307 15.1022C147.307 16.4614 146.25 17.5186 144.89 17.5186C143.531 17.5186 142.474 16.4614 142.474 15.1022ZM143.38 15.1022C143.38 16.0084 143.984 16.6124 144.89 16.6124C145.796 16.6124 146.401 16.0084 146.401 15.1022C146.401 14.3471 145.796 13.592 144.89 13.592C143.984 13.592 143.38 14.1961 143.38 15.1022Z" fill="#FF7058"/>
<path d="M137.188 24.9186C138.773 24.9186 140.058 23.6339 140.058 22.0492C140.058 20.4645 138.773 19.1798 137.188 19.1798C135.604 19.1798 134.319 20.4645 134.319 22.0492C134.319 23.6339 135.604 24.9186 137.188 24.9186Z" fill="#22A45D"/>
<path d="M139.303 11.0247C139.152 11.4777 138.699 11.7798 138.245 11.6288C136.735 11.1757 135.074 12.0818 134.772 13.592C134.621 14.0451 134.168 14.3471 133.715 14.1961C133.262 14.0451 132.96 13.592 133.111 13.139C133.866 10.7226 136.282 9.36346 138.699 9.96754C139.152 10.1186 139.454 10.5716 139.303 11.0247Z" fill="#5DBB88"/>
<path d="M84.772 72.5186C86.0231 72.5186 87.0373 71.5044 87.0373 70.2533C87.0373 69.0022 86.0231 67.988 84.772 67.988C83.5209 67.988 82.5067 69.0022 82.5067 70.2533C82.5067 71.5044 83.5209 72.5186 84.772 72.5186Z" fill="#F8B64C"/>
<path d="M95.7964 57.5675C95.7964 56.0573 94.5883 55.0002 93.2291 55.0002C91.7189 55.0002 90.6617 56.2083 90.6617 57.5675C90.6617 58.0206 91.2658 58.3226 92.1719 58.4737V61.041H94.4373V58.4737C95.1924 58.4737 95.7964 58.1716 95.7964 57.5675Z" fill="#22A45D"/>
<path d="M272.402 270.087C273.308 269.181 273.308 267.671 272.402 266.765C271.495 265.858 269.985 265.858 269.079 266.765C268.777 267.067 268.928 267.671 269.381 268.426L267.72 270.087L269.23 271.446L270.891 269.785C271.495 270.238 272.1 270.389 272.402 270.087Z" fill="#22A45D"/>
<path fill-rule="evenodd" clip-rule="evenodd" d="M143.507 105.417C143.507 104.057 144.564 103 145.923 103C147.282 103 148.339 104.057 148.339 105.417C148.339 106.776 147.282 107.833 145.923 107.833C144.564 107.833 143.507 106.776 143.507 105.417ZM144.413 105.417C144.413 106.323 145.017 106.927 145.923 106.927C146.678 106.927 147.433 106.323 147.433 105.417C147.433 104.51 146.829 103.906 145.923 103.906C145.017 103.906 144.413 104.51 144.413 105.417Z" fill="#FF7058"/>
<path fill-rule="evenodd" clip-rule="evenodd" d="M82.5067 323.266C82.5067 322.057 83.5638 321 84.772 321C85.9801 321 86.8862 322.057 87.0373 323.266C87.0373 324.474 85.9801 325.531 84.772 325.531C83.5638 325.531 82.5067 324.474 82.5067 323.266ZM83.4128 323.266C83.4128 324.021 84.0169 324.625 84.772 324.625C85.5271 324.625 86.1311 324.021 86.1311 323.266C86.1311 322.51 85.5271 321.906 84.772 321.906C84.0169 321.906 83.4128 322.51 83.4128 323.266Z" fill="#FF7058"/>
<path d="M95.376 281.739C96.9608 281.739 98.2454 280.454 98.2454 278.87C98.2454 277.285 96.9608 276 95.376 276C93.7913 276 92.5067 277.285 92.5067 278.87C92.5067 280.454 93.7913 281.739 95.376 281.739Z" fill="#F8B64C"/>
<path d="M66.376 137.739C67.9608 137.739 69.2454 136.454 69.2454 134.87C69.2454 133.285 67.9608 132 66.376 132C64.7913 132 63.5067 133.285 63.5067 134.87C63.5067 136.454 64.7913 137.739 66.376 137.739Z" fill="#F8B64C"/>
<path d="M174.433 122.89C173.98 122.89 173.678 122.437 173.678 121.984C173.98 120.474 172.923 118.963 171.262 118.661C170.809 118.661 170.507 118.208 170.507 117.755C170.507 117.302 170.96 117 171.413 117C173.829 117.453 175.49 119.719 175.188 122.135C175.339 122.739 174.886 123.041 174.433 122.89Z" fill="#F8B64C"/>
<path d="M218.621 279.229C219.789 279.229 220.735 278.282 220.735 277.115C220.735 275.947 219.789 275 218.621 275C217.453 275 216.507 275.947 216.507 277.115C216.507 278.282 217.453 279.229 218.621 279.229Z" fill="#F8B64C"/>
<path d="M261.528 255.74C260.169 255.589 259.263 254.381 259.565 253.022C259.716 251.663 260.924 250.756 262.283 251.058C262.736 251.058 262.887 251.814 263.038 252.569L265.304 252.871L265.002 254.834L262.585 254.532C262.434 255.287 261.981 255.891 261.528 255.74Z" fill="#22A45D"/>
<path d="M118.527 135.041C120.195 135.041 121.547 133.689 121.547 132.021C121.547 130.353 120.195 129 118.527 129C116.859 129 115.507 130.353 115.507 132.021C115.507 133.689 116.859 135.041 118.527 135.041Z" fill="#F8B64C"/>
<path d="M306.444 204.308C305.991 204.308 305.689 204.761 305.84 205.214C306.142 206.573 305.084 207.932 303.725 208.234C303.272 208.234 302.97 208.687 303.121 209.141C303.121 209.594 303.574 209.896 304.027 209.745C306.293 209.443 307.803 207.328 307.501 205.063C307.35 204.61 306.897 204.308 306.444 204.308Z" fill="#F8B64C"/>
<path d="M69.8684 341.418C69.4153 341.418 69.1133 341.871 69.2643 342.324C69.5663 343.683 68.5092 345.043 67.15 345.345C66.697 345.345 66.3949 345.798 66.5459 346.251C66.5459 346.704 66.999 347.006 67.4521 346.855C69.7174 346.553 71.2276 344.439 70.9255 342.173C70.7745 341.569 70.3214 341.267 69.8684 341.418Z" fill="#F8B64C"/>
<path d="M82.252 331.904C81.95 332.206 81.3459 332.206 81.0439 331.753C79.9867 330.545 78.1745 330.394 76.9663 331.451C76.6643 331.753 76.0602 331.753 75.7582 331.3C75.4561 330.998 75.4561 330.394 75.9092 330.092C77.8725 328.43 80.5908 328.732 82.252 330.545C82.5541 331.149 82.5541 331.602 82.252 331.904Z" fill="#F8B64C"/>
<path d="M294.211 188.904C293.909 189.206 293.305 189.206 293.003 188.753C291.946 187.545 290.133 187.394 288.925 188.451C288.623 188.753 288.019 188.753 287.717 188.3C287.415 187.998 287.415 187.394 287.868 187.092C289.831 185.43 292.55 185.732 294.211 187.545C294.664 188.149 294.513 188.602 294.211 188.904Z" fill="#F8B64C"/>
</svg>
