<svg width="24" height="24" viewBox="0 0 24 24" fill="none" xmlns="http://www.w3.org/2000/svg">
<path fill-rule="evenodd" clip-rule="evenodd" d="M16 18C12.6863 18 10 15.3137 10 12C10 8.68629 12.6863 6 16 6C19.3137 6 22 8.68629 22 12C22 15.3137 19.3137 18 16 18ZM15.9753 8.33333H16.0317C16.2029 8.33333 16.3463 8.4631 16.3633 8.6335L16.6667 11.6667L18.832 12.904C18.9359 12.9634 19 13.0738 19 13.1934V13.3333C19 13.4739 18.886 13.5879 18.7454 13.5879C18.7228 13.5879 18.7002 13.5849 18.6784 13.579L15.5991 12.7392C15.4449 12.6971 15.3422 12.5514 15.3545 12.392L15.643 8.6411C15.6564 8.46744 15.8012 8.33333 15.9753 8.33333ZM7.66667 7.33333H4.33333C3.78105 7.33333 3.33333 7.78105 3.33333 8.33333C3.33333 8.88562 3.78105 9.33333 4.33333 9.33333H7.66667C8.21895 9.33333 8.66667 8.88562 8.66667 8.33333C8.66667 7.78105 8.21895 7.33333 7.66667 7.33333ZM7.66667 15.3333H4.33333C3.78105 15.3333 3.33333 15.781 3.33333 16.3333C3.33333 16.8856 3.78105 17.3333 4.33333 17.3333H7.66667C8.21895 17.3333 8.66667 16.8856 8.66667 16.3333C8.66667 15.781 8.21895 15.3333 7.66667 15.3333ZM3 11.3333H5.66667C6.21895 11.3333 6.66667 11.781 6.66667 12.3333C6.66667 12.8856 6.21895 13.3333 5.66667 13.3333H3C2.44772 13.3333 2 12.8856 2 12.3333C2 11.781 2.44772 11.3333 3 11.3333Z" fill="#010F07"/>
</svg>
