<svg width="24" height="24" viewBox="0 0 24 24" fill="none" xmlns="http://www.w3.org/2000/svg">
<path fill-rule="evenodd" clip-rule="evenodd" d="M16.9013 6.75L6.825 16.8263L7.88566 17.8869L17.9619 7.81066L16.9013 6.75ZM13.8789 7.87114L12 9.75C10.7574 9.75 9.75 10.7574 9.75 12L7.14496 14.605C5.81255 13.3751 5.25 12 5.25 12C5.25 12 7.09091 7.5 12 7.5C12.6499 7.5 13.2807 7.64021 13.8789 7.87114ZM17.4059 10.3863C18.2478 11.2634 18.75 12 18.75 12C18.75 12 15.6818 16.5 12 16.5C11.767 16.5 11.5409 16.4899 11.3216 16.4706L17.4059 10.3863Z" fill="#010F07"/>
</svg>
