<svg width="24" height="24" viewBox="0 0 24 24" fill="none" xmlns="http://www.w3.org/2000/svg">
<path fill-rule="evenodd" clip-rule="evenodd" d="M13.9986 8.75C13.9986 9.16421 14.3343 9.5 14.7485 9.5C15.1627 9.5 15.4984 9.16421 15.4984 8.75V8C15.4984 6.34315 14.1554 5 12.4987 5H7.99974C6.34303 5 5 6.34315 5 8V17C5 18.6569 6.34303 20 7.99974 20H12.5039C14.1606 20 15.5036 18.6569 15.5036 17V16.25C15.5036 15.8358 15.1679 15.5 14.7537 15.5C14.3395 15.5 14.0038 15.8358 14.0038 16.25V17C14.0038 17.8284 13.3323 18.5 12.5039 18.5H7.99974C7.17138 18.5 6.49987 17.8284 6.49987 17V8C6.49987 7.17157 7.17138 6.5 7.99974 6.5H12.4987C13.3271 6.5 13.9986 7.17157 13.9986 8V8.75ZM17.4384 13.25L16.4684 14.2197C16.1754 14.5126 16.1754 14.9874 16.4684 15.2803C16.7614 15.5732 17.2365 15.5732 17.5295 15.2803L19.7803 13.0303C20.0732 12.7374 20.0732 12.2626 19.7803 11.9697L17.5295 9.71967C17.2365 9.42678 16.7614 9.42678 16.4684 9.71967C16.1754 10.0126 16.1754 10.4874 16.4684 10.7803L17.4384 11.75H10.2464C9.83214 11.75 9.49635 12.0858 9.49635 12.5C9.49635 12.9142 9.83214 13.25 10.2464 13.25H17.4384Z" fill="#010F07"/>
</svg>
