<svg width="24" height="24" viewBox="0 0 24 24" fill="none" xmlns="http://www.w3.org/2000/svg">
<path fill-rule="evenodd" clip-rule="evenodd" d="M12 17L8.59634 18.7894C8.18897 19.0036 7.68511 18.8469 7.47094 18.4396C7.38566 18.2774 7.35623 18.0916 7.38721 17.9109L8.03725 14.1209L5.28364 11.4368C4.95407 11.1155 4.94733 10.5879 5.26858 10.2584C5.3965 10.1271 5.56412 10.0417 5.74548 10.0154L9.55088 9.46243L11.2527 6.01415C11.4564 5.60144 11.9561 5.43199 12.3688 5.63568C12.5331 5.71679 12.6662 5.84981 12.7473 6.01415L14.4491 9.46243L18.2545 10.0154C18.7099 10.0816 19.0255 10.5044 18.9593 10.9599C18.933 11.1413 18.8476 11.3089 18.7163 11.4368L15.9627 14.1209L16.6128 17.9109C16.6906 18.3645 16.3859 18.7953 15.9323 18.8731C15.7517 18.9041 15.5659 18.8747 15.4036 18.7894L12 17Z" fill="#010F07"/>
</svg>
