<svg width="24" height="24" viewBox="0 0 24 24" fill="none" xmlns="http://www.w3.org/2000/svg">
<path fill-rule="evenodd" clip-rule="evenodd" d="M11.1667 17C7.945 17 5.33333 14.3883 5.33333 11.1667C5.33333 7.94502 7.945 5.33334 11.1667 5.33334C14.3883 5.33334 17 7.94502 17 11.1667C17 12.6897 16.4163 14.0764 15.4605 15.1153L18.4226 18.0774C18.748 18.4029 18.748 18.9305 18.4226 19.2559C18.0971 19.5814 17.5695 19.5814 17.2441 19.2559L14.1616 16.1735C13.2862 16.6983 12.2617 17 11.1667 17ZM11.1667 15.3333C13.4678 15.3333 15.3333 13.4679 15.3333 11.1667C15.3333 8.86549 13.4678 7.00001 11.1667 7.00001C8.86547 7.00001 6.99999 8.86549 6.99999 11.1667C6.99999 13.4679 8.86547 15.3333 11.1667 15.3333Z" fill="#010F07"/>
</svg>
