<svg width="24" height="24" viewBox="0 0 24 24" fill="none" xmlns="http://www.w3.org/2000/svg">
<path fill-rule="evenodd" clip-rule="evenodd" d="M7.62683 13.6939C7.6272 13.7341 7.62753 13.7697 7.62753 13.8006C7.62753 13.9503 7.62676 14.1578 7.62596 14.3719C7.62512 14.5999 7.62424 14.8354 7.62424 15.0163H7.74443C7.97199 15.0163 8.17547 14.8667 8.25435 14.6414L8.25437 14.6414C8.92315 12.731 9.86818 11.5708 11.0894 11.1607C11.9413 10.8746 12.879 10.7862 14.1953 10.748V13.7028C14.1953 13.8474 14.247 13.9866 14.3401 14.0927C14.5441 14.3252 14.888 14.3392 15.1083 14.1238L19.8257 9.51233C19.8373 9.50103 19.8484 9.4892 19.859 9.47688C20.0607 9.24216 20.044 8.87926 19.8216 8.66632L15.1042 4.14884C15.0042 4.05306 14.874 4 14.7389 4C14.4387 4 14.1953 4.25691 14.1953 4.57383V7.54677C12.1221 7.64403 10.3885 7.85731 9.23015 9.08696C7.6001 10.8174 7.62014 12.9747 7.62683 13.6939ZM11.176 5.46295C11.176 5.04039 10.8515 4.69784 10.4511 4.69784H6.89939C5.2981 4.69784 4 6.06804 4 7.75827V16.9396C4 18.6298 5.2981 20 6.89939 20H15.5976C17.1989 20 18.497 18.6298 18.497 16.9396V15.4094C18.497 14.9868 18.1724 14.6442 17.7721 14.6442C17.3718 14.6442 17.0473 14.9868 17.0473 15.4094V16.9396C17.0473 17.7847 16.3982 18.4698 15.5976 18.4698H6.89939C6.09875 18.4698 5.4497 17.7847 5.4497 16.9396V7.75827C5.4497 6.91316 6.09875 6.22806 6.89939 6.22806H10.4511C10.8515 6.22806 11.176 5.88551 11.176 5.46295Z" fill="#010F07"/>
</svg>
